<svg aria-hidden="true" style="position: absolute; width: 0; height: 0; overflow: hidden;" version="1.1" xmlns="http://www.w3.org/2000/svg" xmlns:xlink="http://www.w3.org/1999/xlink">
<defs>
<symbol id="icon-close-modal" viewBox="0 0 32 32">
<path d="M32 3.223l-3.223-3.223-12.777 12.777-12.777-12.777-3.223 3.223 12.777 12.777-12.777 12.777 3.223 3.223 12.777-12.777 12.777 12.777 3.223-3.223-12.777-12.777 12.777-12.777z"></path>
</symbol>
<symbol id="icon-card-nine-right" viewBox="0 0 16 32">
<path stroke-linejoin="miter" stroke-linecap="butt" stroke-miterlimit="4" stroke-width="0.3137" d="M0.314 0.314l15.686 15.686-15.686 15.686"></path>
</symbol>
<symbol id="icon-card-nine-left" viewBox="0 0 16 32">
<path stroke-linejoin="miter" stroke-linecap="butt" stroke-miterlimit="4" stroke-width="0.3137" d="M16 0.314l-15.686 15.686 15.686 15.686"></path>
</symbol>
<symbol id="icon-lupa" viewBox="0 0 32 32">
<path fill="none" stroke="#fff" style="stroke: var(--color1, #fff)" stroke-linejoin="miter" stroke-linecap="butt" stroke-miterlimit="4" stroke-width="4" d="M24.087 13.043c0 6.099-4.944 11.043-11.043 11.043s-11.043-4.944-11.043-11.043c0-6.099 4.944-11.043 11.043-11.043s11.043 4.944 11.043 11.043z"></path>
<path fill="#fff" style="fill: var(--color1, #fff)" d="M28.586 31.414c0.781 0.781 2.047 0.781 2.828 0s0.781-2.047 0-2.828l-2.828 2.828zM22.936 20.108l-1.414-1.414-2.829 2.828 1.414 1.414 2.828-2.828zM31.414 28.586l-8.478-8.478-2.828 2.828 8.478 8.478 2.828-2.828z"></path>
</symbol>
<symbol id="icon-logo" viewBox="0 0 76 32">
<path fill="none" stroke="#000" style="stroke: var(--color2, #000)" stroke-linejoin="round" stroke-linecap="round" stroke-miterlimit="4" stroke-width="1.6" d="M8.8 9.943l-8 8 8 8"></path>
<path fill="none" stroke="#000" style="stroke: var(--color2, #000)" stroke-linejoin="round" stroke-linecap="round" stroke-miterlimit="4" stroke-width="1.6" d="M24.8 9.943l8 8-8 8"></path>
<path fill="#000" style="fill: var(--color2, #000)" d="M19.628 4.034l-6.869 25.637c-0.093 0.348-0.451 0.555-0.8 0.462s-0.555-0.451-0.462-0.8l6.869-25.637c0.093-0.348 0.451-0.555 0.8-0.462s0.555 0.451 0.462 0.8z"></path>
<path fill="#d9d9d9" style="fill: var(--color3, #d9d9d9)" d="M18.366 3.696c0.093-0.348 0.451-0.555 0.8-0.462s0.555 0.451 0.462 0.8l-0.837 3.123-1.262-0.338 0.837-3.123z"></path>
<path fill="none" stroke="#000" style="stroke: var(--color2, #000)" stroke-linejoin="miter" stroke-linecap="round" stroke-miterlimit="4" stroke-width="0.8" d="M20.556 5.618l2.523 0.676"></path>
<path fill="none" stroke="#000" style="stroke: var(--color2, #000)" stroke-linejoin="miter" stroke-linecap="round" stroke-miterlimit="4" stroke-width="0.8" d="M14.248 3.928l2.523 0.676"></path>
<path fill="none" stroke="#000" style="stroke: var(--color2, #000)" stroke-linejoin="miter" stroke-linecap="round" stroke-miterlimit="4" stroke-width="0.8" d="M15.717 0.969l1.31 2.247"></path>
<path fill="none" stroke="#000" style="stroke: var(--color2, #000)" stroke-linejoin="miter" stroke-linecap="round" stroke-miterlimit="4" stroke-width="0.8" d="M14.069 7.117l2.258-1.291"></path>
<path fill="none" stroke="#000" style="stroke: var(--color2, #000)" stroke-linejoin="miter" stroke-linecap="round" stroke-miterlimit="4" stroke-width="0.8" d="M20.22 6.869l1.31 2.247"></path>
<path fill="none" stroke="#000" style="stroke: var(--color2, #000)" stroke-linejoin="miter" stroke-linecap="round" stroke-miterlimit="4" stroke-width="0.8" d="M20.92 4.26l2.258-1.291"></path>
<path fill="#000" style="fill: var(--color2, #000)" d="M44.013 12.058c-0.666 0-1.267-0.147-1.805-0.442-0.531-0.294-0.95-0.701-1.258-1.219-0.301-0.525-0.451-1.11-0.451-1.757s0.15-1.229 0.451-1.747c0.307-0.525 0.73-0.934 1.267-1.229s1.139-0.442 1.805-0.442c0.499 0 0.96 0.083 1.382 0.25s0.781 0.41 1.075 0.73l-0.451 0.451c-0.525-0.531-1.187-0.797-1.987-0.797-0.531 0-1.014 0.122-1.45 0.365s-0.778 0.576-1.027 0.998c-0.243 0.422-0.365 0.896-0.365 1.421s0.122 0.998 0.365 1.421c0.25 0.422 0.592 0.755 1.027 0.998s0.918 0.365 1.45 0.365c0.806 0 1.469-0.269 1.987-0.806l0.451 0.451c-0.294 0.32-0.656 0.566-1.085 0.739-0.422 0.166-0.883 0.25-1.382 0.25zM49.689 12.048c-0.486 0-0.925-0.109-1.315-0.326-0.39-0.224-0.698-0.531-0.922-0.922s-0.336-0.832-0.336-1.325c0-0.493 0.112-0.934 0.336-1.325s0.531-0.694 0.922-0.912c0.39-0.218 0.829-0.326 1.315-0.326s0.925 0.109 1.315 0.326c0.39 0.218 0.694 0.522 0.912 0.912 0.224 0.39 0.336 0.832 0.336 1.325s-0.112 0.934-0.336 1.325c-0.218 0.39-0.522 0.698-0.912 0.922-0.39 0.218-0.829 0.326-1.315 0.326zM49.689 11.443c0.358 0 0.678-0.080 0.96-0.24 0.288-0.166 0.512-0.4 0.672-0.701s0.24-0.643 0.24-1.027c0-0.384-0.080-0.726-0.24-1.027s-0.384-0.531-0.672-0.691c-0.282-0.166-0.602-0.25-0.96-0.25s-0.682 0.083-0.97 0.25c-0.282 0.16-0.506 0.39-0.672 0.691-0.16 0.301-0.24 0.643-0.24 1.027s0.080 0.726 0.24 1.027c0.166 0.301 0.39 0.534 0.672 0.701 0.288 0.16 0.611 0.24 0.97 0.24zM58.252 4.877v7.123h-0.653v-0.998c-0.205 0.339-0.477 0.598-0.816 0.778-0.333 0.179-0.71 0.269-1.133 0.269-0.474 0-0.902-0.109-1.286-0.326s-0.685-0.522-0.902-0.912c-0.218-0.39-0.326-0.835-0.326-1.334s0.109-0.944 0.326-1.334c0.218-0.39 0.518-0.691 0.902-0.902 0.384-0.218 0.813-0.326 1.286-0.326 0.41 0 0.778 0.086 1.104 0.259 0.333 0.166 0.605 0.413 0.816 0.739v-3.034h0.682zM55.708 11.443c0.352 0 0.669-0.080 0.95-0.24 0.288-0.166 0.512-0.4 0.672-0.701 0.166-0.301 0.25-0.643 0.25-1.027s-0.083-0.726-0.25-1.027c-0.16-0.301-0.384-0.531-0.672-0.691-0.282-0.166-0.598-0.25-0.95-0.25-0.358 0-0.682 0.083-0.97 0.25-0.282 0.16-0.506 0.39-0.672 0.691-0.16 0.301-0.24 0.643-0.24 1.027s0.080 0.726 0.24 1.027c0.166 0.301 0.39 0.534 0.672 0.701 0.288 0.16 0.611 0.24 0.97 0.24zM60.15 6.95h0.682v5.050h-0.682v-5.050zM60.496 5.846c-0.141 0-0.259-0.048-0.355-0.144s-0.144-0.211-0.144-0.346c0-0.128 0.048-0.24 0.144-0.336s0.214-0.144 0.355-0.144c0.141 0 0.259 0.048 0.355 0.144 0.096 0.090 0.144 0.198 0.144 0.326 0 0.141-0.048 0.259-0.144 0.355s-0.214 0.144-0.355 0.144zM65.301 6.912c0.634 0 1.136 0.186 1.507 0.557 0.378 0.365 0.566 0.899 0.566 1.603v2.928h-0.682v-2.861c0-0.525-0.131-0.925-0.394-1.2s-0.637-0.413-1.123-0.413c-0.544 0-0.976 0.163-1.296 0.49-0.314 0.32-0.47 0.765-0.47 1.334v2.65h-0.682v-5.050h0.653v0.931c0.186-0.307 0.442-0.544 0.768-0.71 0.333-0.173 0.717-0.259 1.152-0.259zM73.919 6.95v4.435c0 0.858-0.211 1.491-0.634 1.901-0.416 0.416-1.046 0.624-1.891 0.624-0.467 0-0.912-0.070-1.334-0.211-0.416-0.134-0.755-0.323-1.018-0.566l0.346-0.518c0.243 0.218 0.538 0.387 0.883 0.509 0.352 0.122 0.72 0.182 1.104 0.182 0.64 0 1.11-0.15 1.411-0.451 0.301-0.294 0.451-0.755 0.451-1.382v-0.643c-0.211 0.32-0.49 0.563-0.835 0.73-0.339 0.166-0.717 0.25-1.133 0.25-0.474 0-0.906-0.102-1.296-0.307-0.384-0.211-0.688-0.502-0.912-0.874-0.218-0.378-0.326-0.803-0.326-1.277s0.109-0.896 0.326-1.267c0.224-0.371 0.528-0.659 0.912-0.864s0.816-0.307 1.296-0.307c0.429 0 0.816 0.086 1.162 0.259s0.624 0.422 0.835 0.749v-0.97h0.653zM71.337 11.203c0.365 0 0.694-0.077 0.989-0.23 0.294-0.16 0.522-0.381 0.682-0.662 0.166-0.282 0.25-0.602 0.25-0.96s-0.083-0.675-0.25-0.95c-0.16-0.282-0.387-0.499-0.682-0.653-0.288-0.16-0.618-0.24-0.989-0.24-0.365 0-0.694 0.077-0.989 0.23-0.288 0.154-0.515 0.371-0.682 0.653-0.16 0.282-0.24 0.602-0.24 0.96s0.080 0.678 0.24 0.96c0.166 0.282 0.394 0.502 0.682 0.662 0.294 0.154 0.624 0.23 0.989 0.23z"></path>
<path fill="#000" style="fill: var(--color2, #000)" d="M62.366 18.762c-0.134 0.197-0.284 0.433-0.45 0.708s-0.342 0.583-0.53 0.923c-0.159 0.284-0.317 0.588-0.473 0.909-0.153 0.319-0.3 0.636-0.441 0.952-0.141 0.312-0.27 0.614-0.389 0.905-0.119 0.288-0.222 0.542-0.309 0.764-0.088 0.219-0.156 0.395-0.206 0.53-0.050 0.131-0.075 0.198-0.075 0.202-0.031 0.078-0.087 0.117-0.169 0.117-0.041 0-0.077-0.012-0.108-0.037-0.031-0.028-0.052-0.063-0.061-0.103 0-0.003-0.016-0.069-0.047-0.197-0.028-0.131-0.067-0.305-0.117-0.52-0.050-0.219-0.108-0.469-0.173-0.75-0.062-0.284-0.13-0.58-0.202-0.886-0.069-0.309-0.139-0.622-0.211-0.938s-0.139-0.616-0.202-0.9c-0.209 0.591-0.42 1.114-0.633 1.57-0.209 0.453-0.425 0.848-0.647 1.186-0.222 0.334-0.452 0.616-0.689 0.844-0.234 0.228-0.481 0.412-0.741 0.553-0.256 0.138-0.527 0.236-0.811 0.295-0.281 0.059-0.58 0.089-0.895 0.089-0.163 0-0.336-0.019-0.52-0.056-0.184-0.034-0.367-0.089-0.548-0.164s-0.355-0.169-0.52-0.281c-0.166-0.112-0.312-0.245-0.441-0.398-0.128-0.156-0.23-0.331-0.305-0.525-0.075-0.197-0.112-0.416-0.112-0.656 0-0.253 0.053-0.484 0.159-0.694 0.106-0.212 0.25-0.394 0.431-0.544 0.181-0.153 0.391-0.272 0.628-0.356 0.241-0.084 0.494-0.127 0.759-0.127 0.194 0 0.367 0.017 0.52 0.052 0.156 0.031 0.294 0.072 0.413 0.122s0.22 0.105 0.305 0.164 0.155 0.114 0.211 0.164c0.056 0.050 0.097 0.094 0.122 0.131 0.025 0.034 0.039 0.052 0.042 0.052 0.019 0.034 0.028 0.067 0.028 0.098 0 0.044-0.017 0.084-0.052 0.122-0.031 0.037-0.073 0.056-0.127 0.056-0.063 0-0.113-0.027-0.15-0.080-0.003-0.003-0.028-0.031-0.075-0.084-0.047-0.056-0.123-0.117-0.23-0.183s-0.244-0.125-0.412-0.178c-0.166-0.053-0.369-0.080-0.609-0.080-0.219 0-0.427 0.034-0.623 0.103-0.194 0.066-0.364 0.159-0.511 0.281-0.144 0.122-0.259 0.267-0.347 0.436-0.084 0.166-0.127 0.348-0.127 0.548 0 0.197 0.033 0.377 0.098 0.539s0.153 0.308 0.263 0.436c0.109 0.128 0.236 0.239 0.38 0.333s0.294 0.172 0.45 0.234c0.156 0.059 0.312 0.105 0.469 0.136 0.159 0.028 0.309 0.042 0.45 0.042 0.238 0 0.469-0.017 0.694-0.052 0.228-0.038 0.452-0.106 0.67-0.206 0.222-0.1 0.439-0.238 0.652-0.412s0.423-0.403 0.633-0.684c0.209-0.281 0.416-0.62 0.619-1.017 0.206-0.397 0.412-0.866 0.619-1.406 0.063-0.162 0.123-0.338 0.183-0.525s0.12-0.377 0.183-0.567c-0.053-0.275-0.092-0.509-0.117-0.703-0.022-0.194-0.033-0.355-0.033-0.483 0-0.137 0.011-0.247 0.033-0.328s0.050-0.142 0.084-0.183c0.034-0.044 0.072-0.070 0.113-0.080 0.041-0.013 0.080-0.019 0.117-0.019 0.031 0 0.066 0.006 0.103 0.019 0.041 0.012 0.077 0.041 0.108 0.084 0.034 0.041 0.063 0.102 0.084 0.183s0.033 0.191 0.033 0.328c0 0.15-0.014 0.323-0.042 0.52s-0.070 0.414-0.127 0.652c0.041 0.191 0.088 0.403 0.141 0.638s0.108 0.478 0.164 0.731c0.056 0.25 0.114 0.506 0.173 0.769s0.117 0.519 0.173 0.769 0.109 0.489 0.159 0.717c0.053 0.228 0.102 0.434 0.145 0.619 0.084-0.213 0.188-0.469 0.309-0.769 0.122-0.303 0.258-0.623 0.408-0.961 0.15-0.341 0.308-0.686 0.473-1.036 0.169-0.353 0.341-0.686 0.516-0.998 0.247-0.444 0.473-0.823 0.68-1.139 0.206-0.319 0.384-0.581 0.534-0.788s0.267-0.358 0.352-0.455c0.088-0.1 0.134-0.155 0.141-0.164 0.034-0.034 0.077-0.052 0.127-0.052 0.053 0 0.095 0.019 0.127 0.056 0.034 0.034 0.052 0.075 0.052 0.122 0 0.022-0.005 0.044-0.014 0.066 0 0.003-0.019 0.050-0.056 0.141-0.034 0.087-0.080 0.209-0.136 0.366-0.053 0.153-0.113 0.334-0.178 0.544-0.066 0.206-0.13 0.43-0.192 0.67-0.063 0.237-0.119 0.488-0.169 0.75-0.047 0.259-0.081 0.519-0.103 0.778-0.009 0.119-0.017 0.244-0.023 0.375-0.006 0.128-0.009 0.258-0.009 0.389 0 0.206 0.009 0.414 0.028 0.623s0.050 0.411 0.094 0.605c0.044 0.194 0.103 0.377 0.178 0.548 0.075 0.169 0.167 0.317 0.277 0.445s0.239 0.231 0.389 0.309c0.153 0.078 0.33 0.12 0.53 0.127 0.050 0.003 0.089 0.025 0.117 0.066 0.031 0.038 0.047 0.078 0.047 0.122s-0.017 0.083-0.052 0.117c-0.034 0.034-0.075 0.052-0.122 0.052-0.050 0-0.1-0.005-0.15-0.014-0.225-0.031-0.423-0.095-0.595-0.192-0.172-0.1-0.32-0.222-0.445-0.366-0.125-0.147-0.23-0.312-0.314-0.497-0.081-0.187-0.147-0.387-0.197-0.6s-0.086-0.433-0.108-0.661c-0.019-0.231-0.028-0.464-0.028-0.698 0-0.278 0.014-0.556 0.042-0.834s0.066-0.548 0.112-0.811c0.047-0.266 0.102-0.522 0.164-0.769s0.127-0.477 0.192-0.689zM67.761 23.492c-0.013 0.025-0.039 0.078-0.080 0.159-0.038 0.078-0.088 0.169-0.15 0.272-0.059 0.103-0.13 0.211-0.211 0.323s-0.172 0.216-0.272 0.309c-0.1 0.094-0.208 0.172-0.323 0.234-0.116 0.059-0.237 0.089-0.366 0.089-0.181 0-0.334-0.058-0.459-0.173-0.122-0.116-0.211-0.261-0.267-0.436-0.106 0.178-0.233 0.32-0.38 0.427-0.147 0.103-0.294 0.155-0.441 0.155-0.116 0-0.22-0.020-0.314-0.061-0.094-0.044-0.173-0.103-0.239-0.178-0.066-0.078-0.117-0.169-0.155-0.272-0.034-0.103-0.052-0.216-0.052-0.338 0-0.244 0.041-0.458 0.122-0.642 0.084-0.188 0.191-0.344 0.319-0.469s0.269-0.219 0.422-0.281c0.156-0.063 0.306-0.094 0.45-0.094 0.097 0 0.186 0.014 0.267 0.042 0.081 0.025 0.15 0.053 0.206 0.084 0.059 0.031 0.105 0.061 0.136 0.089 0.031 0.025 0.048 0.039 0.052 0.042 0.034 0.041 0.052 0.083 0.052 0.127 0 0.047-0.017 0.089-0.052 0.127-0.034 0.034-0.075 0.052-0.122 0.052-0.050 0-0.092-0.017-0.127-0.052-0.006-0.006-0.020-0.017-0.042-0.033-0.022-0.019-0.052-0.037-0.089-0.056s-0.083-0.034-0.136-0.047c-0.050-0.016-0.108-0.023-0.173-0.023-0.097 0-0.2 0.022-0.309 0.066s-0.209 0.112-0.3 0.206c-0.091 0.091-0.167 0.206-0.23 0.347-0.059 0.137-0.089 0.302-0.089 0.492 0 0.059 0.006 0.12 0.019 0.183 0.012 0.059 0.034 0.114 0.066 0.164s0.073 0.091 0.127 0.122c0.053 0.031 0.119 0.047 0.197 0.047 0.056 0 0.12-0.019 0.192-0.056 0.075-0.037 0.145-0.095 0.211-0.173 0.069-0.078 0.13-0.177 0.183-0.295 0.056-0.119 0.095-0.259 0.117-0.422 0.006-0.044 0.027-0.080 0.061-0.108 0.034-0.031 0.075-0.047 0.122-0.047 0.044 0 0.081 0.017 0.112 0.052 0.034 0.034 0.053 0.073 0.056 0.117 0.003 0.059 0.009 0.144 0.019 0.253 0.009 0.106 0.030 0.213 0.061 0.319 0.034 0.106 0.084 0.198 0.15 0.277s0.156 0.117 0.272 0.117c0.075 0 0.148-0.020 0.22-0.061 0.075-0.041 0.147-0.094 0.216-0.159 0.072-0.069 0.139-0.145 0.202-0.23 0.066-0.088 0.125-0.175 0.178-0.263s0.1-0.172 0.141-0.253c0.041-0.081 0.075-0.152 0.103-0.211 0.016-0.034 0.038-0.061 0.066-0.080 0.031-0.019 0.064-0.028 0.098-0.028 0.053 0 0.095 0.020 0.127 0.061 0.034 0.037 0.052 0.078 0.052 0.122 0 0.022-0.005 0.044-0.014 0.066zM69.134 25.259c0.587-0.766 0.995-1.402 1.223-1.908 0.016-0.034 0.036-0.059 0.061-0.075 0.028-0.019 0.059-0.028 0.094-0.028 0.053 0 0.097 0.019 0.131 0.056 0.034 0.034 0.052 0.075 0.052 0.122 0 0.022-0.005 0.044-0.014 0.066-0.138 0.313-0.333 0.661-0.586 1.045s-0.573 0.819-0.961 1.303c0 0.197 0.002 0.394 0.005 0.591s0.005 0.412 0.005 0.647c0 0.234-0.006 0.466-0.019 0.694-0.009 0.231-0.028 0.45-0.056 0.656-0.028 0.209-0.067 0.402-0.117 0.577-0.047 0.178-0.109 0.331-0.188 0.459-0.075 0.131-0.167 0.233-0.277 0.305-0.106 0.075-0.233 0.113-0.38 0.113-0.209 0-0.37-0.080-0.483-0.239s-0.169-0.386-0.169-0.68c0-0.156 0.014-0.327 0.042-0.511 0.031-0.181 0.075-0.369 0.131-0.563s0.123-0.391 0.202-0.591c0.081-0.197 0.17-0.389 0.267-0.577s0.202-0.367 0.314-0.539c0.116-0.172 0.238-0.328 0.366-0.469 0.003-0.219 0.005-0.436 0.005-0.652 0.003-0.216 0.008-0.414 0.014-0.595-0.094 0.119-0.206 0.212-0.338 0.281-0.128 0.069-0.256 0.103-0.384 0.103-0.109 0-0.209-0.020-0.3-0.061-0.088-0.044-0.163-0.103-0.225-0.178-0.062-0.078-0.111-0.169-0.145-0.272s-0.052-0.216-0.052-0.338c0-0.244 0.041-0.458 0.122-0.642 0.084-0.188 0.191-0.344 0.319-0.469s0.269-0.219 0.422-0.281c0.156-0.063 0.306-0.094 0.45-0.094 0.097 0 0.186 0.012 0.267 0.038s0.15 0.053 0.206 0.084c0.059 0.031 0.105 0.061 0.136 0.089s0.048 0.044 0.052 0.047c0.034 0.037 0.052 0.080 0.052 0.127s-0.017 0.089-0.052 0.127c-0.034 0.034-0.075 0.052-0.122 0.052-0.044 0-0.086-0.017-0.127-0.052-0.013-0.009-0.030-0.022-0.052-0.038-0.019-0.019-0.045-0.038-0.080-0.056-0.031-0.019-0.070-0.034-0.117-0.047-0.044-0.012-0.097-0.019-0.159-0.019-0.094 0-0.197 0.022-0.309 0.066-0.113 0.041-0.217 0.106-0.314 0.197s-0.178 0.208-0.244 0.352c-0.066 0.141-0.098 0.311-0.098 0.511 0 0.15 0.033 0.272 0.098 0.366 0.066 0.091 0.167 0.136 0.305 0.136 0.066 0 0.134-0.019 0.206-0.056 0.075-0.037 0.147-0.095 0.216-0.173s0.128-0.177 0.178-0.295c0.053-0.119 0.091-0.259 0.112-0.422 0.006-0.044 0.027-0.080 0.061-0.108 0.034-0.031 0.075-0.047 0.122-0.047 0.053 0 0.094 0.019 0.122 0.056 0.031 0.038 0.047 0.080 0.047 0.127 0 0.003-0.002 0.052-0.005 0.145-0.003 0.091-0.006 0.213-0.009 0.366s-0.008 0.331-0.014 0.534c-0.003 0.2-0.006 0.413-0.009 0.638zM68.778 26.286c-0.147 0.203-0.28 0.423-0.398 0.661-0.119 0.241-0.22 0.483-0.305 0.727s-0.15 0.48-0.197 0.708c-0.044 0.231-0.066 0.437-0.066 0.619 0 0.116 0.009 0.208 0.028 0.277 0.022 0.069 0.047 0.122 0.075 0.159 0.031 0.038 0.064 0.062 0.098 0.075 0.038 0.012 0.072 0.019 0.103 0.019 0.097 0 0.181-0.039 0.253-0.117s0.133-0.183 0.183-0.314c0.050-0.128 0.091-0.277 0.122-0.445s0.055-0.344 0.070-0.525c0.016-0.178 0.027-0.356 0.033-0.534s0.009-0.342 0.009-0.492c0-0.134 0-0.269 0-0.403s-0.003-0.272-0.009-0.412zM71.127 21.12c0 0.119-0.042 0.22-0.127 0.305-0.081 0.081-0.181 0.122-0.3 0.122s-0.22-0.041-0.305-0.122c-0.081-0.084-0.122-0.186-0.122-0.305 0-0.059 0.011-0.114 0.033-0.164 0.022-0.053 0.052-0.098 0.089-0.136 0.041-0.041 0.086-0.072 0.136-0.094 0.053-0.022 0.109-0.033 0.169-0.033s0.114 0.011 0.164 0.033c0.053 0.022 0.098 0.053 0.136 0.094 0.041 0.038 0.072 0.083 0.094 0.136 0.022 0.050 0.033 0.105 0.033 0.164zM70.367 23.867c0-0.45 0.028-0.898 0.084-1.345 0.006-0.044 0.025-0.081 0.056-0.112 0.034-0.034 0.078-0.052 0.131-0.052 0.047 0 0.086 0.019 0.117 0.056 0.031 0.034 0.047 0.075 0.047 0.122 0 0.019-0.005 0.075-0.014 0.169-0.006 0.094-0.016 0.206-0.028 0.337-0.009 0.128-0.019 0.266-0.028 0.413-0.006 0.144-0.009 0.277-0.009 0.398 0 0.166 0.016 0.3 0.047 0.403 0.034 0.1 0.077 0.178 0.127 0.234 0.053 0.056 0.108 0.094 0.164 0.112 0.059 0.019 0.116 0.028 0.169 0.028 0.088 0 0.178-0.031 0.272-0.094s0.189-0.15 0.286-0.262c0.1-0.113 0.2-0.247 0.3-0.403 0.1-0.159 0.198-0.336 0.295-0.53 0.016-0.031 0.038-0.055 0.066-0.070 0.028-0.019 0.059-0.028 0.094-0.028 0.050 0 0.091 0.019 0.122 0.056 0.034 0.038 0.052 0.078 0.052 0.122 0 0.031-0.006 0.058-0.019 0.080-0.038 0.072-0.084 0.159-0.141 0.262s-0.12 0.209-0.192 0.319c-0.072 0.109-0.152 0.219-0.239 0.328-0.084 0.106-0.175 0.203-0.272 0.291-0.097 0.084-0.198 0.153-0.305 0.206s-0.214 0.080-0.323 0.080c-0.141 0-0.264-0.030-0.37-0.089s-0.197-0.139-0.272-0.239c-0.072-0.1-0.127-0.217-0.164-0.352-0.034-0.138-0.052-0.284-0.052-0.441zM70.864 21.12c0-0.044-0.017-0.081-0.052-0.112-0.031-0.034-0.069-0.052-0.112-0.052s-0.081 0.017-0.112 0.052c-0.031 0.031-0.047 0.069-0.047 0.112s0.016 0.081 0.047 0.112c0.031 0.031 0.069 0.047 0.112 0.047s0.081-0.016 0.112-0.047c0.034-0.031 0.052-0.069 0.052-0.112zM75.444 23.502c-0.019 0.034-0.052 0.097-0.098 0.187-0.044 0.091-0.105 0.194-0.183 0.309-0.075 0.113-0.166 0.23-0.272 0.352s-0.228 0.234-0.366 0.338c-0.137 0.1-0.292 0.183-0.464 0.248-0.169 0.066-0.353 0.098-0.553 0.098-0.178 0-0.336-0.033-0.473-0.098-0.138-0.062-0.255-0.152-0.352-0.267-0.097-0.119-0.17-0.258-0.22-0.417s-0.075-0.336-0.075-0.53c0-0.187 0.027-0.362 0.080-0.525 0.053-0.166 0.125-0.309 0.216-0.431 0.094-0.122 0.202-0.217 0.323-0.286 0.122-0.072 0.252-0.108 0.389-0.108 0.103 0 0.197 0.019 0.281 0.056 0.084 0.034 0.155 0.081 0.211 0.141 0.059 0.059 0.105 0.125 0.136 0.197 0.034 0.072 0.052 0.144 0.052 0.216 0 0.069-0.009 0.133-0.028 0.192-0.016 0.059-0.038 0.112-0.066 0.159-0.025 0.044-0.055 0.080-0.089 0.108-0.034 0.025-0.069 0.038-0.103 0.038-0.053 0-0.097-0.017-0.131-0.052-0.031-0.034-0.047-0.077-0.047-0.127 0-0.025 0.005-0.047 0.014-0.066 0.013-0.019 0.025-0.038 0.038-0.056 0.016-0.022 0.028-0.047 0.038-0.075 0.012-0.031 0.019-0.070 0.019-0.117 0-0.066-0.031-0.125-0.094-0.178-0.059-0.053-0.136-0.080-0.23-0.080-0.087 0-0.172 0.027-0.253 0.080-0.078 0.053-0.147 0.125-0.206 0.216-0.059 0.088-0.108 0.192-0.145 0.314-0.034 0.119-0.052 0.245-0.052 0.38 0 0.128 0.016 0.25 0.047 0.366s0.078 0.219 0.141 0.309c0.062 0.088 0.141 0.158 0.234 0.211 0.097 0.053 0.211 0.080 0.342 0.080 0.169 0 0.325-0.030 0.469-0.089 0.144-0.062 0.275-0.141 0.394-0.234s0.223-0.195 0.314-0.305c0.091-0.113 0.167-0.217 0.23-0.314 0.066-0.1 0.116-0.186 0.15-0.258 0.038-0.075 0.059-0.122 0.066-0.141 0.013-0.031 0.033-0.055 0.061-0.070 0.031-0.019 0.064-0.028 0.098-0.028 0.053 0 0.095 0.019 0.127 0.056 0.034 0.038 0.052 0.080 0.052 0.127 0 0.019-0.006 0.044-0.019 0.075z"></path>
</symbol>
<symbol id="icon-header-dark-version" viewBox="0 0 64 32">
<path fill="#7a7a7a" style="fill: var(--color4, #7a7a7a)" d="M16 0h32c8.837 0 16 7.163 16 16s-7.163 16-16 16h-32c-8.837 0-16-7.163-16-16s7.163-16 16-16z"></path>
<path fill="#000" style="fill: var(--color2, #000)" d="M64 16c0 8.837-7.343 16-16.4 16s-16.4-7.163-16.4-16c0-8.837 7.343-16 16.4-16s16.4 7.163 16.4 16z"></path>
<path fill="#000" style="fill: var(--color2, #000)" d="M59.627 16c0 6.48-5.385 11.733-12.027 11.733s-12.027-5.253-12.027-11.733c0-6.48 5.385-11.733 12.027-11.733s12.027 5.253 12.027 11.733z"></path>
</symbol>
<symbol id="icon-header-light-version" viewBox="0 0 64 32">
<path fill="#7a7a7a" style="fill: var(--color4, #7a7a7a)" d="M16 0h32c8.837 0 16 7.163 16 16s-7.163 16-16 16h-32c-8.837 0-16-7.163-16-16s7.163-16 16-16z"></path>
<path fill="#fff" style="fill: var(--color1, #fff); stroke: var(--color2, #000)" stroke="#000" stroke-linejoin="miter" stroke-linecap="butt" stroke-miterlimit="4" stroke-width="0.8" d="M32.4 16c0 8.606-7.154 15.6-16 15.6s-16-6.994-16-15.6c0-8.606 7.154-15.6 16-15.6s16 6.994 16 15.6z"></path>
<path fill="#000" style="fill: var(--color2, #000)" d="M28.427 16c0 6.48-5.385 11.733-12.027 11.733s-12.027-5.253-12.027-11.733c0-6.48 5.385-11.733 12.027-11.733s12.027 5.253 12.027 11.733z"></path>
</symbol>
<symbol id="icon-background" viewBox="0 0 13 32">
<path fill="#8acecf" style="fill: var(--color1, #8acecf)" d="M2.396 5.119c-2.709-1.063-1.045-2.802-2.012-4.154-0.123-0.172-0.251-0.316-0.384-0.435v11.411c1.247-0.882 2.601-2.452 3.247-3.054 1.161-1.082 1.857-2.705-0.851-3.768z"></path>
<path fill="#000" style="fill: var(--color2, #000)" d="M0.598 6.442h0.468v0.467h-0.468v-0.467z"></path>
<path fill="#000" style="fill: var(--color2, #000)" d="M0.832 8.826h0.468v0.467h-0.468v-0.467z"></path>
<path fill="#6f6f6f" style="fill: var(--color3, #6f6f6f)" d="M12.439 2.748c-0.532-0.65-0.516-1.256-0.442-1.477 0.049-0.147 0.8-0.972 1.467-1.27v6.087c-0.224-0.095-0.393-0.323-0.392-0.748 0.005-1.413 0.031-1.779-0.634-2.591z"></path>
<path fill="#000" style="fill: var(--color2, #000)" d="M12.277 1.589h0.468v0.467h-0.468v-0.467z"></path>
<path fill="#000" style="fill: var(--color2, #000)" d="M12.043 3.805h0.468v0.467h-0.468v-0.467z"></path>
<path fill="#bdbdbd" style="fill: var(--color4, #bdbdbd)" d="M11.8 7.449c-0.741-0.722-1.143-1.158-0.656-1.654 0.509-0.519 0.945 0.682 1.648 0.868 0.229 0.060 0.454 0.036 0.673-0.015v5.768c-0.344-0.295-0.528-0.797-1.067-1.168-0.973-0.669-0.598-1.349-0.328-1.701s0.656-1.196-0.27-2.099z"></path>
<path fill="#000" style="fill: var(--color2, #000)" d="M12.745 8.592h0.468v0.467h-0.468v-0.467z"></path>
<path fill="#8acecf" style="fill: var(--color1, #8acecf)" d="M11.063 17.974c2.709-1.063 1.045-2.802 2.012-4.154 0.124-0.174 0.255-0.32 0.389-0.44v11.42c-1.248-0.881-2.606-2.455-3.253-3.058-1.161-1.082-1.857-2.705 0.851-3.768z"></path>
<path fill="#000" style="fill: var(--color2, #000)" d="M12.861 19.297h-0.468v0.467h0.468v-0.467z"></path>
<path fill="#000" style="fill: var(--color2, #000)" d="M12.627 21.681h-0.468v0.467h0.468v-0.467z"></path>
<path fill="#6f6f6f" style="fill: var(--color3, #6f6f6f)" d="M1.021 15.604c0.532-0.65 0.517-1.257 0.442-1.479-0.049-0.147-0.796-0.968-1.463-1.269v6.089c0.222-0.096 0.388-0.325 0.387-0.747-0.005-1.415-0.031-1.781 0.634-2.594z"></path>
<path fill="#000" style="fill: var(--color2, #000)" d="M1.182 14.445h-0.468v0.467h0.468v-0.467z"></path>
<path fill="#000" style="fill: var(--color2, #000)" d="M1.416 16.661h-0.468v0.467h0.468v-0.467z"></path>
<path fill="#bdbdbd" style="fill: var(--color4, #bdbdbd)" d="M1.659 20.304c0.741-0.722 1.143-1.158 0.656-1.654-0.51-0.519-0.945 0.683-1.648 0.868-0.227 0.060-0.451 0.036-0.667-0.014v5.762c0.341-0.295 0.525-0.795 1.061-1.163 0.973-0.669 0.598-1.349 0.328-1.701s-0.656-1.196 0.27-2.099z"></path>
<path fill="#000" style="fill: var(--color2, #000)" d="M0 20.924v0zM0 20.923l-0.018-0.005-0.001 0.002v0.002h0.019zM0 20.922v0zM0.143 20.229v0zM0.165 20.111v0zM0.502 19.602v0zM0.993 19.622v0zM1.351 19.939v0zM1.392 20.137v0zM1.291 20.322v0zM1.147 20.747l-0.019 0.001v0l0.019-0.001zM1.229 21.245v0zM1.244 21.316v0zM1.319 21.912v0zM1.099 22.423v0zM0.749 22.562v0zM0.697 22.568v0zM0.482 22.628v0zM0.223 22.832v0zM0.146 23.193v0zM0.305 23.598v0zM0.318 23.624v0zM0.478 24.063v0zM0.362 24.454v0zM0.008 24.572v0zM0 24.571h-0.019v0.016l0.016 0.002 0.003-0.018zM0.019 20.924v-0.001h-0.037v0.001h0.037zM0.018 20.927l0-0.001-0.036-0.009-0 0.001 0.036 0.009zM0.018 20.926c0.047-0.19 0.090-0.415 0.143-0.693l-0.037-0.007c-0.053 0.279-0.096 0.503-0.142 0.691l0.036 0.009zM0.161 20.233c0.007-0.038 0.015-0.078 0.023-0.118l-0.037-0.007c-0.008 0.041-0.015 0.080-0.023 0.118l0.037 0.007zM0.184 20.114c0.053-0.278 0.178-0.43 0.326-0.496l-0.015-0.034c-0.162 0.072-0.292 0.236-0.347 0.523l0.037 0.007zM0.509 19.619c0.148-0.066 0.322-0.047 0.476 0.021l0.015-0.034c-0.16-0.070-0.345-0.092-0.506-0.021l0.015 0.034zM0.985 19.639c0.154 0.068 0.285 0.183 0.349 0.308l0.033-0.017c-0.068-0.134-0.208-0.255-0.367-0.325l-0.015 0.034zM1.335 19.947c0.032 0.062 0.046 0.126 0.039 0.188l0.037 0.005c0.009-0.070-0.008-0.142-0.043-0.209l-0.033 0.017zM1.373 20.135c-0.007 0.061-0.037 0.121-0.095 0.173l0.025 0.028c0.064-0.058 0.099-0.126 0.107-0.197l-0.037-0.005zM1.278 20.308c-0.122 0.111-0.157 0.265-0.15 0.439l0.037-0.001c-0.007-0.17 0.027-0.31 0.138-0.41l-0.025-0.028zM1.128 20.748c0.006 0.154 0.044 0.326 0.082 0.501l0.037-0.008c-0.039-0.176-0.076-0.345-0.081-0.494l-0.037 0.002zM1.21 21.249c0.005 0.023 0.010 0.047 0.016 0.071l0.037-0.008c-0.005-0.024-0.010-0.047-0.016-0.071l-0.037 0.008zM1.226 21.32c0.044 0.201 0.083 0.404 0.074 0.592l0.037 0.002c0.009-0.193-0.031-0.401-0.075-0.601l-0.037 0.008zM1.3 21.911c-0.009 0.188-0.066 0.359-0.214 0.497l0.025 0.027c0.157-0.147 0.217-0.329 0.226-0.523l-0.037-0.002zM1.086 22.409c-0.118 0.11-0.224 0.122-0.339 0.135l0.004 0.037c0.116-0.013 0.233-0.026 0.361-0.144l-0.025-0.027zM0.747 22.544c-0.017 0.002-0.034 0.004-0.052 0.006l0.005 0.037c0.017-0.002 0.034-0.004 0.051-0.006l-0.004-0.037zM0.695 22.55c-0.068 0.009-0.141 0.023-0.221 0.062l0.016 0.034c0.075-0.036 0.143-0.050 0.209-0.058l-0.005-0.037zM0.474 22.611c-0.080 0.039-0.167 0.102-0.265 0.208l0.028 0.025c0.095-0.104 0.179-0.164 0.254-0.2l-0.016-0.034zM0.209 22.82c-0.1 0.109-0.112 0.239-0.081 0.377l0.037-0.008c-0.029-0.132-0.017-0.247 0.072-0.344l-0.028-0.025zM0.128 23.197c0.029 0.13 0.095 0.269 0.16 0.409l0.034-0.016c-0.066-0.14-0.13-0.275-0.158-0.401l-0.037 0.008zM0.288 23.605c0.004 0.009 0.008 0.017 0.012 0.026l0.034-0.016c-0.004-0.009-0.008-0.017-0.012-0.026l-0.034 0.016zM0.301 23.632c0.070 0.148 0.137 0.296 0.159 0.435l0.037-0.006c-0.023-0.144-0.093-0.297-0.162-0.445l-0.034 0.016zM0.46 24.066c0.022 0.138-0.001 0.265-0.111 0.374l0.026 0.027c0.121-0.12 0.145-0.26 0.122-0.407l-0.037 0.006zM0.349 24.44c-0.101 0.1-0.216 0.131-0.338 0.113l-0.005 0.037c0.133 0.019 0.26-0.015 0.369-0.124l-0.026-0.027zM0.011 24.554l-0.008-0.001-0.005 0.037 0.008 0.001 0.005-0.037zM0.019 24.571v-0.008h-0.037v0.008h0.037zM0.019 24.563v-3.639h-0.037v3.639h0.037z"></path>
<path fill="#000" style="fill: var(--color2, #000)" d="M0.714 21.448h-0.468v0.467h0.468v-0.467z"></path>
<path fill="#6f6f6f" style="fill: var(--color3, #6f6f6f)" d="M12.44 28.987c-0.532-0.65-0.516-1.256-0.442-1.477 0.049-0.147 0.8-0.972 1.467-1.27v6.087c-0.224-0.095-0.393-0.323-0.392-0.748 0.005-1.413 0.031-1.779-0.634-2.591z"></path>
<path fill="#000" style="fill: var(--color2, #000)" d="M12.278 27.82h0.468v0.467h-0.468v-0.467z"></path>
<path fill="#8acecf" style="fill: var(--color1, #8acecf)" d="M0.384 26.665c-0.123-0.172-0.251-0.316-0.384-0.435v3.712h1.097c-0.758-1.006 0.019-2.253-0.714-3.278z"></path>
</symbol>
</defs>
</svg>
